<?xml version="1.0" encoding="UTF-8" standalone="no"?>
<svg width="265px" height="265px" viewBox="0 0 265 265" version="1.1" xmlns="http://www.w3.org/2000/svg" xmlns:xlink="http://www.w3.org/1999/xlink" xmlns:sketch="http://www.bohemiancoding.com/sketch/ns">
    <!-- Generator: Sketch 3.3.2 (12043) - http://www.bohemiancoding.com/sketch -->
    <title>Slice 1</title>
    <desc>Created with Sketch.</desc>
    <defs></defs>
    <g id="Page-1" stroke="none" stroke-width="1" fill="none" fill-rule="evenodd" sketch:type="MSPage">
        <g id="LOGO-LT-NOTEXT" sketch:type="MSLayerGroup">
            <path d="M262.184,155.743 C251.101,217.379 197.187,264.163 132.366,264.163 C59.529,264.163 0.46,205.093 0.46,132.257 C0.46,67.435 47.243,13.52 108.879,2.437 L108.879,41.977 C68.745,52.391 39.099,88.868 39.099,132.256 C39.099,183.757 80.865,225.523 132.365,225.523 C175.753,225.523 212.233,195.878 222.649,155.743 L262.184,155.743" id="Fill-1" fill="#FF851B" sketch:type="MSShapeGroup"></path>
            <path d="M132.366,0.35 C205.203,0.35 264.272,59.419 264.272,132.257 L225.632,132.257 L225.632,132.256 C225.632,80.755 183.867,38.99 132.366,38.989 L132.366,0.35 L132.366,0.35 Z M183.415,81.207 L183.415,81.207 C191.117,88.909 191.116,101.512 183.415,109.211 L109.32,183.305 C101.62,191.006 89.019,191.007 81.316,183.305 C73.615,175.603 73.615,163.001 81.316,155.302 L155.412,81.207 C163.111,73.505 175.713,73.505 183.415,81.207 L183.415,81.207 Z" id="Fill-2" fill="#0074D9" sketch:type="MSShapeGroup"></path>
        </g>
    </g>
</svg>